# xmcd CD database file
#
# Track frame offsets:
#	150
#	18945
#	46090
#	61165
#	79751
#	108232
#	129964
#	149533
#	168288
#	189413
#	205913
#	223439
#	244140
#	261392
#	280909
#	297057
#
# Disc length: 4290 seconds
#
# Revision: 1
# Processed by: cddbd v1.5.2PL0 Copyright (c) Steve Scherf et al.
# Submitted via: CDex 1.70beta2
#
DISCID=eb10c010
DTITLE=Various Artist - Japan's Love 戀日情緣 2
DYEAR=1900
DGENRE=JPop
TTITLE0=摘星的晚上
TTITLE1=星
TTITLE2=愛你一萬年
TTITLE3=我只在乎你
TTITLE4=李香蘭
TTITLE5=OH夜
TTITLE6=唯一
TTITLE7=酒紅色的心
TTITLE8=很愛很愛你
TTITLE9=何日君再來
TTITLE10=飄雪
TTITLE11=容易受傷的女人
TTITLE12=無力去愛誰
TTITLE13=那麼愛你為甚麼
TTITLE14=赤的誘感
TTITLE15=後來
EXTD=
EXTT0=
EXTT1=
EXTT2=
EXTT3=
EXTT4=
EXTT5=
EXTT6=
EXTT7=
EXTT8=
EXTT9=
EXTT10=
EXTT11=
EXTT12=
EXTT13=
EXTT14=
EXTT15=
PLAYORDER=
